<?xml version="1.0" encoding="UTF-8" standalone="no"?>
<!DOCTYPE svg PUBLIC "-//W3C//DTD SVG 1.1//EN"
 "http://www.w3.org/Graphics/SVG/1.1/DTD/svg11.dtd">
<!-- Generated by graphviz version 2.43.0 (0)
 -->
<!-- Title: %3 Pages: 1 -->
<svg width="484pt" height="116pt"
 viewBox="0.00 0.00 484.43 116.00" xmlns="http://www.w3.org/2000/svg" xmlns:xlink="http://www.w3.org/1999/xlink">
<g id="graph0" class="graph" transform="scale(1 1) rotate(0) translate(4 112)">
<title>%3</title>
<polygon fill="white" stroke="transparent" points="-4,4 -4,-112 480.43,-112 480.43,4 -4,4"/>
<!-- A -->
<g id="node1" class="node">
<title>A</title>
<ellipse fill="none" stroke="black" cx="237.39" cy="-90" rx="65.79" ry="18"/>
<text text-anchor="middle" x="237.39" y="-86.3" font-family="Times,serif" font-size="14.00">King Arthur</text>
</g>
<!-- B -->
<g id="node2" class="node">
<title>B</title>
<ellipse fill="none" stroke="black" cx="114.39" cy="-18" rx="114.28" ry="18"/>
<text text-anchor="middle" x="114.39" y="-14.3" font-family="Times,serif" font-size="14.00">Sir Bedevere the Wise</text>
</g>
<!-- A&#45;&gt;B -->
<g id="edge1" class="edge">
<title>A&#45;&gt;B</title>
<path fill="none" stroke="black" d="M210.09,-73.46C193.06,-63.77 170.9,-51.16 152.19,-40.51"/>
<polygon fill="black" stroke="black" points="153.75,-37.37 143.33,-35.47 150.28,-43.46 153.75,-37.37"/>
</g>
<!-- L -->
<g id="node3" class="node">
<title>L</title>
<ellipse fill="none" stroke="black" cx="361.39" cy="-18" rx="115.08" ry="18"/>
<text text-anchor="middle" x="361.39" y="-14.3" font-family="Times,serif" font-size="14.00">Sir Lancelot the Brave</text>
</g>
<!-- A&#45;&gt;L -->
<g id="edge2" class="edge">
<title>A&#45;&gt;L</title>
<path fill="none" stroke="black" d="M264.91,-73.46C282.08,-63.77 304.42,-51.16 323.28,-40.51"/>
<polygon fill="black" stroke="black" points="325.23,-43.43 332.22,-35.47 321.79,-37.34 325.23,-43.43"/>
</g>
<!-- B&#45;&gt;L -->
<g id="edge3" class="edge">
<title>B&#45;&gt;L</title>
<path fill="none" stroke="black" d="M229.21,-18C231.51,-18 233.82,-18 236.13,-18"/>
<polygon fill="black" stroke="black" points="236.25,-21.5 246.25,-18 236.25,-14.5 236.25,-21.5"/>
</g>
</g>
</svg>
