<?xml version="1.0" encoding="UTF-8" standalone="no"?>
<!DOCTYPE svg PUBLIC "-//W3C//DTD SVG 1.1//EN"
 "http://www.w3.org/Graphics/SVG/1.1/DTD/svg11.dtd">
<!-- Generated by graphviz version 2.43.0 (0)
 -->
<!-- Title: %3 Pages: 1 -->
<svg width="195pt" height="305pt"
 viewBox="0.00 0.00 195.00 305.00" xmlns="http://www.w3.org/2000/svg" xmlns:xlink="http://www.w3.org/1999/xlink">
<g id="graph0" class="graph" transform="scale(1 1) rotate(0) translate(4 301)">
<title>%3</title>
<polygon fill="white" stroke="transparent" points="-4,4 -4,-301 191,-301 191,4 -4,4"/>
<!-- a -->
<g id="node1" class="node">
<title>a</title>
<ellipse fill="none" stroke="black" cx="32" cy="-279" rx="27" ry="18"/>
<text text-anchor="middle" x="32" y="-275.3" font-family="Times,serif" font-size="14.00">a</text>
</g>
<!-- b -->
<g id="node2" class="node">
<title>b</title>
<ellipse fill="none" stroke="black" cx="27" cy="-18" rx="27" ry="18"/>
<text text-anchor="middle" x="27" y="-14.3" font-family="Times,serif" font-size="14.00">b</text>
</g>
<!-- a&#45;&gt;b -->
<g id="edge1" class="edge">
<title>a&#45;&gt;b</title>
<path fill="none" stroke="black" d="M31.66,-260.6C30.81,-216.46 28.56,-99.83 27.53,-46.42"/>
<polygon fill="black" stroke="black" points="31.03,-46.25 27.33,-36.32 24.03,-46.39 31.03,-46.25"/>
<text text-anchor="middle" x="40.5" y="-144.8" font-family="Times,serif" font-size="14.00">0.2</text>
</g>
<!-- c -->
<g id="node3" class="node">
<title>c</title>
<ellipse fill="none" stroke="black" cx="80" cy="-192" rx="27" ry="18"/>
<text text-anchor="middle" x="80" y="-188.3" font-family="Times,serif" font-size="14.00">c</text>
</g>
<!-- a&#45;&gt;c -->
<g id="edge2" class="edge">
<title>a&#45;&gt;c</title>
<path fill="none" stroke="black" d="M41.03,-262.01C48.02,-249.63 57.84,-232.23 65.88,-218.01"/>
<polygon fill="black" stroke="black" points="68.98,-219.63 70.85,-209.21 62.88,-216.19 68.98,-219.63"/>
<text text-anchor="middle" x="69.5" y="-231.8" font-family="Times,serif" font-size="14.00">0.4</text>
</g>
<!-- c&#45;&gt;b -->
<g id="edge3" class="edge">
<title>c&#45;&gt;b</title>
<path fill="none" stroke="black" d="M74.82,-174.19C65.6,-144.27 46.26,-81.52 35.21,-45.65"/>
<polygon fill="black" stroke="black" points="38.49,-44.4 32.2,-35.87 31.8,-46.46 38.49,-44.4"/>
<text text-anchor="middle" x="69.5" y="-101.3" font-family="Times,serif" font-size="14.00">0.6</text>
</g>
<!-- e -->
<g id="node4" class="node">
<title>e</title>
<ellipse fill="none" stroke="black" cx="119" cy="-105" rx="27" ry="18"/>
<text text-anchor="middle" x="119" y="-101.3" font-family="Times,serif" font-size="14.00">e</text>
</g>
<!-- c&#45;&gt;e -->
<g id="edge4" class="edge">
<title>c&#45;&gt;e</title>
<path fill="none" stroke="black" d="M87.52,-174.61C93.13,-162.38 100.9,-145.44 107.32,-131.46"/>
<polygon fill="black" stroke="black" points="110.51,-132.89 111.5,-122.34 104.15,-129.97 110.51,-132.89"/>
<text text-anchor="middle" x="112.5" y="-144.8" font-family="Times,serif" font-size="14.00">0.6</text>
</g>
<!-- e&#45;&gt;b -->
<g id="edge6" class="edge">
<title>e&#45;&gt;b</title>
<path fill="none" stroke="black" d="M103.81,-89.96C89.16,-76.43 66.8,-55.77 49.97,-40.22"/>
<polygon fill="black" stroke="black" points="51.93,-37.27 42.21,-33.06 47.18,-42.41 51.93,-37.27"/>
<text text-anchor="middle" x="89.5" y="-57.8" font-family="Times,serif" font-size="14.00">0.7</text>
</g>
<!-- e&#45;&gt;e -->
<g id="edge5" class="edge">
<title>e&#45;&gt;e</title>
<path fill="none" stroke="black" d="M143.53,-112.75C154.51,-113.49 164,-110.91 164,-105 164,-101.03 159.72,-98.56 153.57,-97.59"/>
<polygon fill="black" stroke="black" points="153.65,-94.09 143.53,-97.25 153.41,-101.09 153.65,-94.09"/>
<text text-anchor="middle" x="175.5" y="-101.3" font-family="Times,serif" font-size="14.00">0.1</text>
</g>
</g>
</svg>
